<svg viewBox="0 0 362 216" xmlns="http://www.w3.org/2000/svg" xmlns:xlink="http://www.w3.org/1999/xlink"><defs><rect id="0" width="195" height="139" rx="8"/><mask id="1" maskContentUnits="userSpaceOnUse" maskUnits="objectBoundingBox" x="0" y="0" width="195" height="139" fill="#fff"><use xlink:href="#0"/></mask></defs><g fill="none" fill-rule="evenodd"><path fill="#f34a4e" d="m0 0h362v216h-362z"/><g transform="translate(84 39)"><use stroke="#fed0d1" mask="url(#1)" stroke-width="12" xlink:href="#0"/><g transform="translate(5 36)" fill="#fed0d1"><path d="m1 0h184v4h-184z"/><path transform="matrix(0 1-1 0 79.5 2.5)" d="m0 39h77v4h-77z"/><path transform="matrix(0 1-1 0 186.5-103.5)" d="m106.5 39.5h77v4h-77z"/><path d="m0 76h187v4h-187z"/></g><g fill="#fed0d1"><g transform="translate(117 20)"><path d="m46 0h18v2h-18z"/><path d="m23 0h18v2h-18z"/><path d="m0 0h18v2h-18z"/></g><g transform="translate(56 54)"><path d="m0 0h85v2h-85z"/><path d="m0 5h82v2h-82z"/><path d="m0 10h80v2h-80z"/><path d="m0 15h84v2h-84z"/><path d="m0 20h82v2h-82z"/></g><g transform="translate(54 124)"><path d="m0 0h40v2h-40z"/><path d="m44 0h40v2h-40z"/></g><g transform="translate(19 14)"><path d="m19 6h18v2h-18z"/><circle cx="7" cy="7" r="7"/></g></g></g></g></svg>