<svg viewBox="0 0 362 216" xmlns="http://www.w3.org/2000/svg" xmlns:xlink="http://www.w3.org/1999/xlink"><defs><rect id="0" width="195" height="139" rx="8"/><rect id="2" x="227" width="85" height="139" rx="8"/><mask id="1" maskContentUnits="userSpaceOnUse" maskUnits="objectBoundingBox" x="0" y="0" width="195" height="139" fill="#fff"><use xlink:href="#0"/></mask><mask id="3" maskContentUnits="userSpaceOnUse" maskUnits="objectBoundingBox" x="0" y="0" width="85" height="139" fill="#fff"><use xlink:href="#2"/></mask></defs><g fill="none" fill-rule="evenodd"><path fill="#f34a4e" d="m0 0h362v216h-362z"/><g transform="translate(25 39)"><g stroke="#fed0d1" stroke-width="12"><use mask="url(#1)" xlink:href="#0"/><use mask="url(#3)" xlink:href="#2"/></g><g fill="#fed0d1"><path stroke-width="1" d="m6 36h184v4h-184z"/><g transform="translate(117 20)"><path d="m46 0h18v2h-18z" id="4"/><path d="m23 0h18v2h-18z" id="5"/><path d="m0 0h18v2h-18z" id="6"/></g><g transform="translate(237 39)"><use xlink:href="#4"/><use xlink:href="#5"/><use xlink:href="#6"/></g><g transform="translate(19 14)"><path d="m19 6h18v2h-18z" id="7"/><circle cx="7" cy="7" r="7"/></g><g transform="translate(251 15)"><use xlink:href="#7"/><circle cx="7" cy="7" r="7"/></g></g></g></g></svg>