<svg viewBox="0 0 362 216" xmlns="http://www.w3.org/2000/svg" xmlns:xlink="http://www.w3.org/1999/xlink"><defs><use id="0" xlink:href="#6"/><use id="2" xlink:href="#6"/><use id="4" xlink:href="#6"/><rect id="6" width="83.48" rx="4" height="139"/><rect id="7" width="58.746" x="12.368" y="114.29" rx="4.5" height="13.9" fill="#f34a4e"/><path id="8" d="m0 0h54.11v3.089h-54.11z"/><path id="9" d="m0 15.444h50.925v3.089h-50.925z"/><mask id="1" maskContentUnits="userSpaceOnUse" maskUnits="objectBoundingBox" x="0" y="0" width="83.48" height="139" fill="#fff"><use xlink:href="#0"/></mask><mask id="3" maskContentUnits="userSpaceOnUse" maskUnits="objectBoundingBox" x="0" y="0" width="83.48" height="139" fill="#fff"><use xlink:href="#2"/></mask><mask id="5" maskContentUnits="userSpaceOnUse" maskUnits="objectBoundingBox" x="0" y="0" width="83.48" height="139" fill="#fff"><use xlink:href="#4"/></mask></defs><g fill="none" fill-rule="evenodd"><path fill="#fed0d1" d="m0 0h362v216h-362z"/><g transform="translate(45 39)"><g><g transform="translate(12.368 61.778)" fill="#f34a4e"><use xlink:href="#8"/><path d="m0 7.722h52.2v3.089h-52.2z"/><use xlink:href="#9"/><path d="m0 23.17h53.47v3.089h-53.47z"/><path d="m0 30.889h52.2v3.089h-52.2z"/><path d="m0 38.611h52.2v3.089h-52.2z"/></g><use xlink:href="#7"/><path fill="#f34a4e" d="m12.368 10.811h58.746v40.16h-58.746z"/><use stroke="#f34a4e" mask="url(#1)" stroke-width="6" xlink:href="#0"/></g><g transform="translate(94.3)"><g transform="translate(12.368 61.778)" fill="#f34a4e"><use xlink:href="#8"/><path d="m0 7.722h52.2v3.089h-52.2z" id="B"/><use xlink:href="#9"/></g><use xlink:href="#7"/><path fill="#f34a4e" d="m12.368 10.811h58.746v40.16h-58.746z" id="A"/><use stroke="#f34a4e" mask="url(#3)" stroke-width="6" xlink:href="#2"/></g><g transform="translate(188.6)"><g transform="translate(12.368 61.778)" fill="#f34a4e"><use xlink:href="#8"/><use xlink:href="#B"/><use xlink:href="#9"/><path d="m0 23.17h53.47v3.089h-53.47z"/></g><use xlink:href="#7"/><use xlink:href="#A"/><use stroke="#f34a4e" mask="url(#5)" stroke-width="6" xlink:href="#4"/></g></g></g></svg>