<svg fill="none" height="432" viewBox="0 0 724 432" width="724" xmlns="http://www.w3.org/2000/svg"><path d="m0 0h724v432h-724z" fill="#f34a4e"/><rect fill="#fed0d1" height="275" rx="2.5" stroke="#fed0d1" stroke-width="3" width="163.961" x="91.5" y="79.5"/><path d="m104 192h108.216v12h-108.216z" fill="#f34a4e"/><path d="m104 218.444h104.396v12h-104.396z" fill="#f34a4e"/><rect fill="#f34a4e" height="28" rx="4.5" width="150" x="98" y="306"/><path d="m98 88h150v80h-150z" fill="#f34a4e"/><rect fill="#fed0d1" height="309.387" rx="2.81261" stroke="#fed0d1" stroke-width="3.37513" width="184.464" x="269.849" y="62.3066"/><path d="m283.912 188.874h121.747v13.5005h-121.747z" fill="#f34a4e"/><path d="m283.912 218.625h117.45v13.5005h-117.45z" fill="#f34a4e"/><path d="m283.912 247.876h114.586v13.5005h-114.586z" fill="#f34a4e"/><rect fill="#f34a4e" height="31.5012" rx="5.06269" width="168.756" x="277.162" y="317.129"/><path d="m277.162 71.8694h168.756v90.0034h-168.756z" fill="#f34a4e"/><rect fill="#fed0d1" height="275" rx="2.5" stroke="#fed0d1" stroke-width="3" width="163.961" x="468.7" y="79.5"/><g fill="#f34a4e"><path d="m481.2 192h108.216v12h-108.216z"/><path d="m481.2 218.444h104.396v12h-104.396z"/><path d="m481.2 244.444h101.85v12h-101.85z"/><path d="m481.2 270.444h104.396v12h-104.396z"/><rect height="28" rx="4.5" width="150" x="475.2" y="306"/><path d="m475.2 88h150v80h-150z"/></g></svg>