<svg height="216" viewBox="0 0 362 216" width="362" xmlns="http://www.w3.org/2000/svg"><g fill="none" fill-rule="evenodd"><path d="m0 0h362v216h-362z" fill="#fed0d1"/><path d="m80.367505 90.777778h40v3h-40z" fill="#f34a4e"/><rect fill="#f34a4e" height="12" rx="6" width="12" x="63" y="86"/><rect height="21" rx="4" stroke="#f34a4e" stroke-width="3" width="77" x="54.5" y="81.5"/><path d="m168.367505 90.777778h40v3h-40z" fill="#f34a4e"/><rect fill="#f34a4e" height="12" rx="6" width="12" x="151" y="86"/><rect height="21" rx="4" stroke="#f34a4e" stroke-width="3" width="77" x="142.5" y="81.5"/><path d="m256.367505 90.777778h40v3h-40z" fill="#f34a4e"/><rect fill="#f34a4e" height="12" rx="6" width="12" x="239" y="86"/><rect height="21" rx="4" stroke="#f34a4e" stroke-width="3" width="77" x="230.5" y="81.5"/><path d="m215 123h82v3h-82z" fill="#f34a4e"/><rect fill="#f34a4e" height="12" rx="6" width="12" x="194" y="118"/><rect height="21" rx="4" stroke="#f34a4e" stroke-width="3" width="121" x="186.5" y="113.5"/><path d="m83 123h82v3h-82z" fill="#f34a4e"/><rect fill="#f34a4e" height="12" rx="6" width="12" x="62" y="118"/><rect height="21" rx="4" stroke="#f34a4e" stroke-width="3" width="121" x="54.5" y="113.5"/></g></svg>